<?xml version="1.0" encoding="UTF-8"?>
<svg id="Layer_2" xmlns="http://www.w3.org/2000/svg" viewBox="0 0 1037 1037">
  <defs>
    <style>
      .cls-1 {
        fill: #91e0ee;
        font-family: VoxRound-Semibold, 'Vox Round';
        font-size: 106.83px;
        font-weight: 600;
      }

      .cls-2 {
        fill: #ede1cf;
      }

      .cls-3 {
        fill: #fbf5ec;
      }

      .cls-4 {
        fill: #1f1f1f;
        stroke: #ede1cf;
        stroke-miterlimit: 10;
        stroke-width: 13px;
      }
    </style>
  </defs>
  <g id="Layer_1-2" data-name="Layer_1">
    <circle class="cls-4" cx="518.5" cy="518.5" r="512"/>
    <g>
      <path class="cls-2" d="M261.57,565.28c1.71,2.99.64,16.79-2.99,16.79h-26.16c-4.27,0-6.63-1.28-8.76-4.92l-31.84-54.28h-23.93v53.42c0,4.06-1.71,5.77-5.77,5.77h-10.47c-4.06,0-5.77-1.71-5.77-5.77v-142.74c0-4.06,1.71-5.77,5.77-5.77h75c16.03,0,23.51,3.63,23.51,22.65v49.79c0,19.02-7.48,22.65-23.51,22.65h-11.97l22.71,38.46,3.17,2.4,21.01,1.55ZM228.57,494.67v-38.46c0-6.2-1.28-7.48-7.69-7.48h-52.78v53.42h52.78c6.84,0,7.69-1.28,7.69-7.48ZM240.56,563.73l22.03,1.19c1.71,2.99-.38,17.14-4.01,17.14"/>
      <path class="cls-2" d="M350.52,576.3c0,4.06-1.71,5.77-5.77,5.77h-84.62c-4.06,0-5.77-1.71-5.77-5.77v-142.74c0-4.06,1.71-5.77,5.77-5.77h96.49c4.06,0,5.77,1.71,5.77,5.77v9.4c0,4.06-1.71,5.77-5.77,5.77h-80.25v45.73h54.49c4.06,0,5.77,1.71,5.77,5.77v9.19c0,4.06-1.71,5.77-5.77,5.77h-54.49v46.16h68.38c4.06,0,5.77,1.71,5.77,5.77v9.19Z"/>
      <path class="cls-2" d="M426.44,576.51c-1.07,4.06-3.21,5.56-7.27,5.56h-17.52c-4.06,0-6.2-1.5-7.27-5.56l-42.07-143.17c-1.07-3.63.43-5.56,4.27-5.56h11.97c4.06,0,5.98,1.5,7.05,5.56l34.59,118.6,31.84-118.6c1.07-4.06,2.99-5.56,7.05-5.56h17.69c3.85,0,5.34,1.92,4.27,5.56l-11.18,19.42-3.18,11.78-30.25,111.98Z"/>
      <path class="cls-2" d="M592.8,576.3c0,4.06-1.71,5.77-5.77,5.77h-114.3c-4.06,0-5.77-1.71-5.77-5.77v-142.74c0-4.06,1.71-5.77,5.77-5.77h84.62c4.06,0,5.77,1.71,5.77,5.77v9.4c0,4.06-1.71,5.77-5.77,5.77h-68.38v45.73h54.49c4.06,0,5.77,1.71,5.77,5.77v9.19c0,4.06-1.71,5.77-5.77,5.77h-54.49v46.16h98.06c4.06,0,5.77,1.71,5.77,5.77v9.19Z"/>
      <path class="cls-2" d="M608.51,522.87h-11.97c-16.03,0-23.51-3.63-23.51-22.65v-49.79c0-19.02,7.48-22.65,23.51-22.65h75c4.06,0,5.77,1.71,5.77,5.77v142.74c0,4.06-1.71,5.77-5.77,5.77h-10.47c-4.06,0-5.77-1.71-5.77-5.77v-53.42s-23.93,0-23.93,0l-31.84,54.28c-2.14,3.63-4.49,4.92-8.76,4.92h-11.33c-3.63,0-4.7-1.92-2.99-4.92l32.05-54.28ZM602.31,502.15h52.78s0-53.42,0-53.42h-52.78c-6.41,0-7.69,1.28-7.69,7.48v38.46c0,6.2.85,7.48,7.69,7.48Z"/>
      <path class="cls-2" d="M691.5,561.34h67.78c6.41,0,7.69-1.28,7.69-7.48v-30.98c0-6.2-1.28-7.48-7.69-7.48h-53.21c-16.03,0-23.5-3.63-23.5-22.65v-42.31c0-19.02,7.48-22.65,23.5-22.65h85.9c16.03,0,23.51,3.63,23.51,22.65v17.52c0,4.06-1.71,5.77-5.77,5.77h-7.5c-4.06,0-5.77-1.71-5.77-5.77v-11.75c0-6.2-1.28-7.48-7.69-7.48h-76.69c-6.41,0-7.69,1.28-7.69,7.48v30.98c0,6.2,1.28,7.48,7.69,7.48h53.42c16.03,0,23.5,3.63,23.5,22.65v42.1c0,19.02-7.48,22.65-23.5,22.65h-88.87c-16.03,0-8.67-3.63-8.67-22.65"/>
      <path class="cls-2" d="M887.68,576.3c0,4.06-1.71,5.77-5.77,5.77h-81.65c-4.06,0-5.77-1.71-5.77-5.77v-142.74c0-4.06,1.71-5.77,5.77-5.77h81.65c4.06,0,5.77,1.71,5.77,5.77v9.4c0,4.06-1.71,5.77-5.77,5.77h-65.41v45.73h51.52c4.06,0,5.77,1.71,5.77,5.77v9.19c0,4.06-1.71,5.77-5.77,5.77h-51.52v46.16h65.41c4.06,0,5.77,1.71,5.77,5.77v9.19Z"/>
    </g>
    <path class="cls-3" d="M124.27,598.2c0,3.63-1.5,5.13-5.13,5.13h-5.77c-16.03,0-23.5-3.63-23.5-22.65v-57.48c0-6.41-1.28-7.69-7.48-7.69h-2.78c-1.5,0-2.14-.64-2.14-2.14v-17.31c0-1.5.64-2.14,2.14-2.14h2.78c6.2,0,7.48-1.28,7.48-7.69v-57.05c0-19.02,7.48-22.65,23.5-22.65h5.77c3.63,0,5.13,1.5,5.13,5.13v13.46c0,1.5-.64,2.14-2.14,2.14h-2.78c-6.41,0-7.69,1.28-7.69,7.48v51.71c0,8.33-1.07,14.32-8.76,18.16,7.69,3.85,8.76,10.04,8.76,18.16v52.35c0,6.2,1.28,7.48,7.69,7.48h2.78c1.5,0,2.14.64,2.14,2.14v13.46Z"/>
    <path class="cls-3" d="M939.21,580.78c0,19.02-7.48,22.65-23.5,22.65h-5.77c-3.63,0-5.34-1.71-5.34-5.34v-13.25c0-1.5.64-2.14,2.14-2.14h2.78c6.41,0,7.69-1.28,7.69-7.48v-52.35c0-8.12,1.07-14.32,8.76-18.16-7.69-3.85-8.76-9.83-8.76-18.16v-51.71c0-6.2-1.28-7.48-7.69-7.48h-2.78c-1.5,0-2.14-.64-2.14-2.14v-13.46c0-3.63,1.71-5.34,5.34-5.34h5.77c16.03,0,23.5,3.63,23.5,22.65v57.05c0,6.41,1.28,7.69,7.48,7.69h2.78c1.5,0,2.14.64,2.14,2.14v17.31c0,1.5-.64,2.14-2.14,2.14h-2.78c-6.2,0-7.48,1.28-7.48,7.69v57.7Z"/>
    <text class="cls-1" transform="translate(352.41 687.26)"><tspan x="0" y="0">CODES</tspan></text>
  </g>
</svg>